<?xml version="1.0" encoding="UTF-8"?>
<svg version="1.1" xmlns="http://www.w3.org/2000/svg" width="317" height="86">
<path d="M0 0 C1.93166016 0.01740234 1.93166016 0.01740234 3.90234375 0.03515625 C5.19269531 0.04417969 6.48304688 0.05320312 7.8125 0.0625 C8.81152344 0.07410156 9.81054688 0.08570313 10.83984375 0.09765625 C12.72850688 6.16349775 13.86655588 12.28305084 14.96484375 18.53515625 C15.14660156 19.55287109 15.32835937 20.57058594 15.515625 21.61914062 C15.96025779 24.11142443 16.40157529 26.60424682 16.83984375 29.09765625 C17.69052834 25.91841081 18.25922419 22.74140735 18.77734375 19.4921875 C19.03644531 17.89407227 19.03644531 17.89407227 19.30078125 16.26367188 C19.66199266 14.01657047 20.02134932 11.76917018 20.37890625 9.52148438 C20.55164063 8.45994141 20.724375 7.39839844 20.90234375 6.3046875 C21.05832031 5.32991455 21.21429688 4.3551416 21.375 3.35083008 C21.83984375 1.09765625 21.83984375 1.09765625 22.83984375 0.09765625 C25.1929793 0.02493884 27.54818043 0.01394757 29.90234375 0.03515625 C31.19269531 0.04417969 32.48304688 0.05320312 33.8125 0.0625 C34.81152344 0.07410156 35.81054688 0.08570313 36.83984375 0.09765625 C37.87429003 3.20099508 37.96067799 5.32641874 37.95336914 8.57885742 C37.95329361 9.69979294 37.95321808 10.82072845 37.95314026 11.97563171 C37.94797897 13.1850795 37.94281769 14.39452728 37.9375 15.640625 C37.93608505 16.87935867 37.9346701 18.11809235 37.93321228 19.3943634 C37.92855977 22.68397162 37.91957765 25.97353085 37.9085083 29.26312256 C37.89827004 32.62137248 37.89370949 35.97962958 37.88867188 39.33789062 C37.8776352 45.92449837 37.86089142 52.5110733 37.83984375 59.09765625 C35.35583773 60.33965926 34.01776739 60.07987276 31.27734375 59.78515625 C30.47167969 59.70652344 29.66601562 59.62789062 28.8359375 59.546875 C28.17722656 59.39863281 27.51851563 59.25039062 26.83984375 59.09765625 C25.63954467 56.69705808 25.72524632 55.20404976 25.7421875 52.52734375 C25.74541016 51.63144531 25.74863281 50.73554687 25.75195312 49.8125 C25.76033203 48.87535156 25.76871094 47.93820313 25.77734375 46.97265625 C25.78185547 46.02777344 25.78636719 45.08289062 25.79101562 44.109375 C25.80282018 41.77207238 25.81928616 39.43489564 25.83984375 37.09765625 C25.75420166 37.69827881 25.66855957 38.29890137 25.58032227 38.91772461 C25.1919636 41.62417283 24.79724046 44.32965461 24.40234375 47.03515625 C24.26763672 47.98068359 24.13292969 48.92621094 23.99414062 49.90039062 C23.79594727 51.24907227 23.79594727 51.24907227 23.59375 52.625 C23.47330322 53.45765381 23.35285645 54.29030762 23.22875977 55.14819336 C22.83984375 57.09765625 22.83984375 57.09765625 21.83984375 58.09765625 C17.85638572 58.24797542 14.72901247 58.06994843 10.83984375 57.09765625 C9.51984375 50.16765625 8.19984375 43.23765625 6.83984375 36.09765625 C6.83984375 42.69765625 6.83984375 49.29765625 6.83984375 56.09765625 C2.6408912 57.14739439 0.04578601 56.8256078 -4.16015625 56.09765625 C-4.18542188 48.28312873 -4.2029873 40.46861167 -4.21508789 32.65405273 C-4.22013008 29.99324144 -4.22696361 27.33243293 -4.2355957 24.67163086 C-4.24766634 20.85660109 -4.25338554 17.04160781 -4.2578125 13.2265625 C-4.26297379 12.02866592 -4.26813507 10.83076935 -4.27345276 9.59657288 C-4.27352829 8.49550705 -4.27360382 7.39444122 -4.27368164 6.26000977 C-4.27590225 5.28516129 -4.27812286 4.31031281 -4.28041077 3.30592346 C-4.08890713 -0.21071129 -3.61116752 0.11159356 0 0 Z " fill="#DB202C" transform="translate(237.16015625,9.90234375)"/>
<path d="M0 0 C1.79244141 0.01740234 1.79244141 0.01740234 3.62109375 0.03515625 C5.41740234 0.04869141 5.41740234 0.04869141 7.25 0.0625 C8.17683594 0.07410156 9.10367188 0.08570313 10.05859375 0.09765625 C12.76333555 6.99474783 14.91621193 14.00563367 17.05859375 21.09765625 C17.38859375 14.16765625 17.71859375 7.23765625 18.05859375 0.09765625 C21.35859375 0.09765625 24.65859375 0.09765625 28.05859375 0.09765625 C29.31134098 2.6031507 29.17888999 4.29501257 29.17211914 7.09814453 C29.17204361 8.13907257 29.17196808 9.18000061 29.17189026 10.25247192 C29.16672897 11.37958588 29.16156769 12.50669983 29.15625 13.66796875 C29.15483505 14.81933319 29.1534201 15.97069763 29.15196228 17.1569519 C29.14635091 20.84554611 29.13379645 24.5340803 29.12109375 28.22265625 C29.11608022 30.71874913 29.11151706 33.21484295 29.10742188 35.7109375 C29.09637778 41.83986698 29.07910548 47.96875143 29.05859375 54.09765625 C25.09859375 54.09765625 21.13859375 54.09765625 17.05859375 54.09765625 C14.15591299 47.14384278 11.80742937 40.23373258 9.80859375 32.97265625 C9.40640625 31.53792969 9.40640625 31.53792969 8.99609375 30.07421875 C8.34531963 27.75002548 7.69956994 25.42456682 7.05859375 23.09765625 C7.06383057 24.0012085 7.06906738 24.90476074 7.07446289 25.83569336 C7.09147061 29.17717114 7.10402708 32.51860317 7.11352539 35.86010742 C7.11856476 37.30835698 7.12539628 38.75660142 7.1340332 40.20483398 C7.14611622 42.28240213 7.15182586 44.35990322 7.15625 46.4375 C7.16148682 47.68909912 7.16672363 48.94069824 7.17211914 50.23022461 C7.05859375 53.09765625 7.05859375 53.09765625 6.05859375 54.09765625 C4.53931337 54.16945589 3.01691893 54.18157632 1.49609375 54.16015625 C0.66980469 54.15113281 -0.15648437 54.14210937 -1.0078125 54.1328125 C-1.64589844 54.12121094 -2.28398437 54.10960937 -2.94140625 54.09765625 C-3.92252142 51.15431073 -4.06802362 49.24990269 -4.07080078 46.18310547 C-4.07552902 44.6867305 -4.07552902 44.6867305 -4.08035278 43.16012573 C-4.07832855 42.08505768 -4.07630432 41.00998962 -4.07421875 39.90234375 C-4.07517548 38.79915802 -4.0761322 37.69597229 -4.07711792 36.55935669 C-4.07779859 34.22755883 -4.07595216 31.89575907 -4.07177734 29.56396484 C-4.06641738 25.98010036 -4.0717314 22.39636063 -4.078125 18.8125 C-4.0774644 16.55078097 -4.07618361 14.28906202 -4.07421875 12.02734375 C-4.07624298 10.94822723 -4.07826721 9.86911072 -4.08035278 8.7572937 C-4.07720062 7.76601471 -4.07404846 6.77473572 -4.07080078 5.75341797 C-4.07000519 4.87644257 -4.06920959 3.99946716 -4.06838989 3.09591675 C-3.86202214 -0.15156084 -3.30968293 0.10988323 0 0 Z " fill="#DB202C" transform="translate(164.94140625,9.90234375)"/>
<path d="M0 0 C1.40668945 0.01450195 1.40668945 0.01450195 2.84179688 0.02929688 C3.81826172 0.05443359 4.79472656 0.07957031 5.80078125 0.10546875 C6.78884766 0.11900391 7.77691406 0.13253906 8.79492188 0.14648438 C11.23492356 0.18184672 13.67382844 0.23119842 16.11328125 0.29296875 C16.57734375 1.71609375 16.57734375 1.71609375 17.05078125 3.16796875 C17.98722867 6.15377283 17.98722867 6.15377283 19.11328125 8.29296875 C19.2491525 11.20061357 19.32606076 14.0830592 19.3515625 16.9921875 C19.35963425 17.86059769 19.36770599 18.72900787 19.37602234 19.62373352 C19.38986776 21.46552533 19.40058786 23.30734284 19.40844727 25.14916992 C19.42560796 27.95216354 19.46948271 30.75396154 19.51367188 33.55664062 C19.52380358 35.34764759 19.53231819 37.13866458 19.5390625 38.9296875 C19.55657059 39.76223557 19.57407867 40.59478363 19.59211731 41.45256042 C19.57086164 47.22023659 18.41617004 50.54066066 15.11328125 55.29296875 C12.861724 57.11892676 10.75670888 58.02209008 8.11328125 59.29296875 C8.44328125 59.95296875 8.77328125 60.61296875 9.11328125 61.29296875 C6.84303157 61.37394199 4.5719605 61.43214579 2.30078125 61.48046875 C0.40392578 61.53267578 0.40392578 61.53267578 -1.53125 61.5859375 C-4.88671875 61.29296875 -4.88671875 61.29296875 -6.8359375 59.90625 C-7.88671875 58.29296875 -7.88671875 58.29296875 -7.88671875 56.29296875 C-8.53576172 55.2764624 -9.18480469 54.25995605 -9.85351562 53.21264648 C-12.32233532 48.99244828 -12.46852905 45.38616454 -12.41796875 40.578125 C-12.42179565 39.76355331 -12.42562256 38.94898163 -12.42956543 38.10972595 C-12.43227332 36.39613603 -12.42499116 34.68250397 -12.40820312 32.96899414 C-12.38680325 30.36574805 -12.40802678 27.76526989 -12.43359375 25.16210938 C-12.43094973 23.48827524 -12.42582322 21.8144428 -12.41796875 20.140625 C-12.42606567 19.37267105 -12.4341626 18.6047171 -12.44250488 17.81349182 C-12.33508166 11.52936193 -10.57484481 6.36462611 -6.3938446 1.58709717 C-4.25958458 -0.24553449 -2.77777891 -0.05050507 0 0 Z M2.11328125 9.29296875 C-0.43237287 11.83862287 -0.13395885 13.48472589 -0.16461182 16.95703125 C-0.16056335 17.72789063 -0.15651489 18.49875 -0.15234375 19.29296875 C-0.1542572 20.08445312 -0.15617065 20.8759375 -0.15814209 21.69140625 C-0.15950393 23.36588865 -0.15580757 25.0403816 -0.14746094 26.71484375 C-0.13676115 29.28279256 -0.147356 31.85004178 -0.16015625 34.41796875 C-0.15883465 36.0429703 -0.15627226 37.66797141 -0.15234375 39.29296875 C-0.15639221 40.06382813 -0.16044067 40.8346875 -0.16461182 41.62890625 C-0.28316586 45.92426312 -0.28316586 45.92426312 2.11328125 49.29296875 C4.71608693 48.97255478 4.71608693 48.97255478 7.11328125 48.29296875 C8.33084274 44.49029042 8.27492431 40.70405527 8.28125 36.75390625 C8.2845784 36.0318399 8.2879068 35.30977356 8.29133606 34.56582642 C8.29638541 33.04454178 8.298745 31.52324613 8.29858398 30.00195312 C8.3007802 27.6690879 8.31898281 25.33668849 8.33789062 23.00390625 C8.34082297 21.5247412 8.34280883 20.04557391 8.34375 18.56640625 C8.35452827 17.51796036 8.35452827 17.51796036 8.36552429 16.44833374 C8.45888143 12.4229523 8.45888143 12.4229523 6.11328125 9.29296875 C4.79328125 9.29296875 3.47328125 9.29296875 2.11328125 9.29296875 Z " fill="#DB202C" transform="translate(55.88671875,9.70703125)"/>
<path d="M0 0 C0.98613281 -0.04576172 1.97226563 -0.09152344 2.98828125 -0.13867188 C9.18113056 -0.23375568 12.64228624 0.48939856 17.14599609 4.84741211 C19.64881992 8.08557094 19.56610311 11.37622432 19.625 15.3125 C19.65078125 16.34117188 19.6765625 17.36984375 19.703125 18.4296875 C19.33078391 21.84281414 18.44212665 23.71812465 16.375 26.4375 C15.715 26.4375 15.055 26.4375 14.375 26.4375 C15.014375 27.200625 15.65375 27.96375 16.3125 28.75 C19.98226798 33.53181888 19.7104744 38.271988 20 44.0625 C20.07734375 45.38894531 20.07734375 45.38894531 20.15625 46.7421875 C20.20007813 47.58265625 20.24390625 48.423125 20.2890625 49.2890625 C20.3298291 50.06072754 20.3705957 50.83239258 20.41259766 51.62744141 C20.375 53.4375 20.375 53.4375 19.375 54.4375 C17.68891034 54.50955511 15.99999341 54.52136068 14.3125 54.5 C13.39339844 54.49097656 12.47429687 54.48195312 11.52734375 54.47265625 C10.81707031 54.46105469 10.10679687 54.44945312 9.375 54.4375 C7.35987773 50.21884972 6.96145932 46.22864568 6.75 41.625 C6.71132812 40.93212891 6.67265625 40.23925781 6.6328125 39.52539062 C6.53926432 37.82982985 6.45607636 36.13370288 6.375 34.4375 C4.395 34.1075 2.415 33.7775 0.375 33.4375 C0.375 40.3675 0.375 47.2975 0.375 54.4375 C-3.585 54.4375 -7.545 54.4375 -11.625 54.4375 C-11.64964032 46.90779868 -11.66783141 39.37812061 -11.67993164 31.84838867 C-11.6849737 29.28458243 -11.69180714 26.72077909 -11.70043945 24.15698242 C-11.71251064 20.48094979 -11.71822942 16.80495502 -11.72265625 13.12890625 C-11.72781754 11.97475723 -11.73297882 10.82060822 -11.73829651 9.63148499 C-11.73837204 8.57046066 -11.73844757 7.50943634 -11.73852539 6.41625977 C-11.740746 5.47694107 -11.74296661 4.53762238 -11.74525452 3.56983948 C-11.44659156 -1.72601821 -4.0564396 0.07511925 0 0 Z M-0.625 9.4375 C-0.625 9.7675 -0.625 10.0975 -0.625 10.4375 C1.355 10.4375 3.335 10.4375 5.375 10.4375 C5.375 10.1075 5.375 9.7775 5.375 9.4375 C3.395 9.4375 1.415 9.4375 -0.625 9.4375 Z M0.375 11.4375 C0.375 15.7275 0.375 20.0175 0.375 24.4375 C1.035 24.1075 1.695 23.7775 2.375 23.4375 C2.045 19.4775 1.715 15.5175 1.375 11.4375 C1.045 11.4375 0.715 11.4375 0.375 11.4375 Z M2.375 11.4375 C2.375 15.3975 2.375 19.3575 2.375 23.4375 C4.025 23.1075 5.675 22.7775 7.375 22.4375 C7.56977739 20.81335622 7.75559458 19.18813577 7.9375 17.5625 C8.04191406 16.65757813 8.14632812 15.75265625 8.25390625 14.8203125 C8.57174852 12.42096943 8.57174852 12.42096943 7.375 10.4375 C5.16418149 10.33209074 5.16418149 10.33209074 2.375 11.4375 Z " fill="#DB202C" transform="translate(124.625,9.5625)"/>
<path d="M0 0 C1.51400391 0.01740234 1.51400391 0.01740234 3.05859375 0.03515625 C4.07050781 0.04417969 5.08242187 0.05320312 6.125 0.0625 C7.29869141 0.07990234 7.29869141 0.07990234 8.49609375 0.09765625 C10.21452235 3.53451346 9.61585287 7.48125756 9.59375 11.26171875 C9.59274292 12.06569092 9.59173584 12.86966309 9.59069824 13.69799805 C9.58545939 16.70623192 9.57149815 19.71444549 9.55859375 22.72265625 C9.53796875 29.44640625 9.51734375 36.17015625 9.49609375 43.09765625 C9.82609375 29.23765625 10.15609375 15.37765625 10.49609375 1.09765625 C10.82609375 1.09765625 11.15609375 1.09765625 11.49609375 1.09765625 C11.49609375 15.61765625 11.49609375 30.13765625 11.49609375 45.09765625 C12.48609375 44.60265625 12.48609375 44.60265625 13.49609375 44.09765625 C13.82609375 29.90765625 14.15609375 15.71765625 14.49609375 1.09765625 C15.15609375 1.42765625 15.81609375 1.75765625 16.49609375 2.09765625 C16.82609375 1.43765625 17.15609375 0.77765625 17.49609375 0.09765625 C21.12609375 0.09765625 24.75609375 0.09765625 28.49609375 0.09765625 C28.45184945 6.52108914 28.38191784 12.94354768 28.28857422 19.36645508 C28.26041656 21.54964426 28.23917623 23.7329344 28.22509766 25.91625977 C28.20359646 29.06188448 28.15690791 32.20630199 28.10546875 35.3515625 C28.10424011 36.32162735 28.10301147 37.2916922 28.10174561 38.29115295 C27.97074619 44.40594198 27.07343065 48.09195822 23.49609375 53.09765625 C19.62953814 56.24670669 15.7483814 56.80888337 10.87109375 57.47265625 C10.20335938 57.57964844 9.535625 57.68664062 8.84765625 57.796875 C4.00675356 58.44555596 4.00675356 58.44555596 1.53515625 56.76171875 C0.49609375 55.09765625 0.49609375 55.09765625 0.49609375 53.09765625 C-0.2294873 52.13037598 -0.2294873 52.13037598 -0.96972656 51.14355469 C-3.24436291 46.62758348 -3.00317348 42.35605819 -3.05078125 37.36328125 C-3.07110413 36.32951355 -3.091427 35.29574585 -3.11236572 34.23065186 C-3.15249405 32.05215702 -3.18568759 29.87352483 -3.21240234 27.69482422 C-3.25393184 24.34559267 -3.31653317 20.99726205 -3.3828125 17.6484375 C-3.41919425 15.5325728 -3.45439199 13.41668734 -3.48828125 11.30078125 C-3.50590515 10.29356018 -3.52352905 9.28633911 -3.54168701 8.24859619 C-3.55210022 7.32383484 -3.56251343 6.39907349 -3.57324219 5.44628906 C-3.58417908 4.62864075 -3.59511597 3.81099243 -3.60638428 2.96856689 C-3.44587172 0.03813721 -2.93816026 0.11459283 0 0 Z " fill="#DB202C" transform="translate(81.50390625,9.90234375)"/>
<path d="M0 0 C1.39456452 0.00667256 2.78911118 0.01863093 4.18359375 0.03515625 C4.89451172 0.03966797 5.60542969 0.04417969 6.33789062 0.04882812 C8.09899388 0.06064761 9.86005411 0.07858362 11.62109375 0.09765625 C14.21441873 10.47699278 16.09912759 20.94411375 17.89306641 31.4855957 C18.37691091 34.31922436 18.87182782 37.15078621 19.3671875 39.98242188 C19.67644959 41.78504172 19.98506784 43.58777216 20.29296875 45.390625 C20.44183533 46.23634567 20.5907019 47.08206635 20.74407959 47.95341492 C21.73562318 53.86859739 21.73562318 53.86859739 20.62109375 56.09765625 C16.99109375 55.76765625 13.36109375 55.43765625 9.62109375 55.09765625 C9.29109375 52.12765625 8.96109375 49.15765625 8.62109375 46.09765625 C7.52796875 46.11828125 6.43484375 46.13890625 5.30859375 46.16015625 C1.62109375 46.09765625 1.62109375 46.09765625 -1.37890625 45.09765625 C-1.70890625 48.06765625 -2.03890625 51.03765625 -2.37890625 54.09765625 C-5.47369504 55.12925251 -6.90522018 55.07248487 -10.06640625 54.66015625 C-10.87464844 54.55832031 -11.68289062 54.45648438 -12.515625 54.3515625 C-13.13050781 54.26777344 -13.74539062 54.18398437 -14.37890625 54.09765625 C-12.00038672 39.80512475 -9.57282228 25.53604444 -6.62890625 11.34765625 C-6.41854736 10.32542969 -6.20818848 9.30320312 -5.99145508 8.25 C-4.2738514 0.12352172 -4.2738514 0.12352172 0 0 Z M2.62109375 16.09765625 C1.63109375 22.69765625 0.64109375 29.29765625 -0.37890625 36.09765625 C1.93109375 36.42765625 4.24109375 36.75765625 6.62109375 37.09765625 C5.63109375 30.16765625 4.64109375 23.23765625 3.62109375 16.09765625 C3.29109375 16.09765625 2.96109375 16.09765625 2.62109375 16.09765625 Z " fill="#DB202C" transform="translate(209.37890625,9.90234375)"/>
<path d="M0 0 C1.12591553 0.00523682 2.25183105 0.01047363 3.41186523 0.01586914 C4.62680664 0.0190918 5.84174805 0.02231445 7.09350586 0.02563477 C8.37290039 0.03401367 9.65229492 0.04239258 10.97045898 0.05102539 C12.2537207 0.05553711 13.53698242 0.06004883 14.85913086 0.06469727 C18.04211921 0.07652994 21.22501661 0.09301471 24.40795898 0.11352539 C24.40795898 3.74352539 24.40795898 7.37352539 24.40795898 11.11352539 C22.75795898 11.11352539 21.10795898 11.11352539 19.40795898 11.11352539 C21.88295898 11.60852539 21.88295898 11.60852539 24.40795898 12.11352539 C24.40795898 12.44352539 24.40795898 12.77352539 24.40795898 13.11352539 C19.12795898 12.78352539 13.84795898 12.45352539 8.40795898 12.11352539 C8.40795898 15.74352539 8.40795898 19.37352539 8.40795898 23.11352539 C12.36795898 23.11352539 16.32795898 23.11352539 20.40795898 23.11352539 C21.41292751 26.12843096 21.51131201 28.15534231 21.47045898 31.30102539 C21.46143555 32.20208008 21.45241211 33.10313477 21.44311523 34.03149414 C21.43151367 34.71856445 21.41991211 35.40563477 21.40795898 36.11352539 C20.08795898 36.11352539 18.76795898 36.11352539 17.40795898 36.11352539 C18.72795898 36.77352539 20.04795898 37.43352539 21.40795898 38.11352539 C17.11795898 37.78352539 12.82795898 37.45352539 8.40795898 37.11352539 C8.40795898 41.07352539 8.40795898 45.03352539 8.40795898 49.11352539 C13.68795898 49.44352539 18.96795898 49.77352539 24.40795898 50.11352539 C24.40795898 50.44352539 24.40795898 50.77352539 24.40795898 51.11352539 C20.77795898 51.11352539 17.14795898 51.11352539 13.40795898 51.11352539 C15.97957357 51.34138997 18.55118815 51.56925456 21.12280273 51.79711914 C23.40795898 52.11352539 23.40795898 52.11352539 24.40795898 53.11352539 C24.4800141 54.79961505 24.49181966 56.48853198 24.47045898 58.17602539 C24.46143555 59.09512695 24.45241211 60.01422852 24.44311523 60.96118164 C24.43151367 61.67145508 24.41991211 62.38172852 24.40795898 63.11352539 C22.17836781 62.99634079 19.9492981 62.86923587 17.72045898 62.73852539 C16.4790918 62.66891602 15.23772461 62.59930664 13.95874023 62.52758789 C10.14602317 62.24234304 6.40012836 61.67952389 2.62353516 61.08764648 C1.45803635 60.90575775 0.29253754 60.72386902 -0.90827942 60.53646851 C-1.79392075 60.39689728 -2.67956207 60.25732605 -3.59204102 60.11352539 C-3.61516922 52.43815912 -3.63295855 44.76279644 -3.64385319 37.0874033 C-3.64908097 33.52375117 -3.65617671 29.96012282 -3.66748047 26.39648438 C-3.68038277 22.30346442 -3.68527008 18.21046959 -3.68969727 14.11743164 C-3.69485855 12.83203995 -3.70001984 11.54664825 -3.70533752 10.2223053 C-3.70541306 9.04115646 -3.70548859 7.86000763 -3.70556641 6.64306641 C-3.70778702 5.59715836 -3.71000763 4.55125031 -3.71229553 3.47364807 C-3.54288654 0.14881648 -3.34367998 0.14644544 0 0 Z " fill="#DB202C" transform="translate(282.592041015625,9.886474609375)"/>
<path d="M0 0 C3.63 0 7.26 0 11 0 C13.27387396 6.60506245 15.21988878 13.24567727 17 20 C19.18781834 14.47836324 20.87928698 8.97719553 22.3515625 3.22265625 C23 1 23 1 24 0 C25.68608966 -0.07205511 27.37500659 -0.08386068 29.0625 -0.0625 C29.98160156 -0.05347656 30.90070312 -0.04445313 31.84765625 -0.03515625 C32.55792969 -0.02355469 33.26820312 -0.01195312 34 0 C35 2 35 2 34.11962891 5.18261719 C33.66119142 6.55602605 33.19633539 7.92730198 32.7265625 9.296875 C32.22465129 10.81867901 31.724559 12.34108386 31.22607422 13.86401367 C30.96340759 14.66277924 30.70074097 15.4615448 30.43011475 16.28451538 C25.58985133 31.10674422 22.69724549 44.30722434 23 60 C21.34393633 61.65606367 19.27134998 61.39915554 17 61.625 C16.0925 61.72039062 15.185 61.81578125 14.25 61.9140625 C13.13625 61.95660156 13.13625 61.95660156 12 62 C11.67 61.67 11.34 61.34 11 61 C11.0194887 58.92120513 11.03991887 56.84241619 11.06420898 54.76367188 C11.05593426 41.38226701 7.65871379 29.72396805 3.50610352 17.1484375 C3.27899689 16.45504272 3.05189026 15.76164795 2.81790161 15.04724121 C2.19090902 13.14806515 1.54704657 11.25448233 0.90209961 9.36132812 C0.0190647 6.0710373 -0.17791535 3.38652657 0 0 Z " fill="#DB202C" transform="translate(10,10)"/>
<path d="M0 0 C0.66 0 1.32 0 2 0 C2.06943717 7.6580332 2.12277913 15.31603387 2.15543652 22.97430992 C2.17110864 26.53018671 2.19237444 30.08584852 2.22631836 33.64160156 C2.26507759 37.72723482 2.27969633 41.81264141 2.29296875 45.8984375 C2.30845261 47.17866791 2.32393646 48.45889832 2.33988953 49.77792358 C2.34011612 50.95899689 2.34034271 52.14007019 2.34057617 53.35693359 C2.34723801 54.40062103 2.35389984 55.44430847 2.36076355 56.5196228 C2.24171158 57.33814728 2.12265961 58.15667175 2 59 C1.01 59.66 0.02 60.32 -1 61 C-1.99 60.67 -2.98 60.34 -4 60 C-3.01 59.34 -2.02 58.68 -1 58 C-0.52224886 55.45861699 -0.52224886 55.45861699 -0.56762695 52.44873047 C-0.54783279 51.28767792 -0.52803864 50.12662537 -0.50764465 48.9303894 C-0.50125473 47.67203278 -0.49486481 46.41367615 -0.48828125 45.1171875 C-0.47033005 43.83264679 -0.45237885 42.54810608 -0.43388367 41.22463989 C-0.38631108 37.80850339 -0.35654927 34.39243324 -0.33044434 30.97607422 C-0.30067498 27.49042651 -0.25413238 24.00500769 -0.20898438 20.51953125 C-0.1228692 13.67981772 -0.05556074 6.84002805 0 0 Z " fill="#DB202C" transform="translate(276,11)"/>
<path d="M0 0 C0.66 0 1.32 0 2 0 C2 17.49 2 34.98 2 53 C1.67 53 1.34 53 1 53 C-0.03844153 47.05321546 -0.12972884 41.28195714 -0.09765625 35.25390625 C-0.0962413 34.24279282 -0.09482635 33.23167938 -0.09336853 32.18992615 C-0.08779961 28.98075319 -0.07525287 25.77165164 -0.0625 22.5625 C-0.05748098 20.37825622 -0.05291878 18.19401134 -0.04882812 16.00976562 C-0.03784037 10.67315298 -0.02113336 5.3365816 0 0 Z " fill="#DB202C" transform="translate(110,11)"/>
<path d="M0 0 C1.32 0 2.64 0 4 0 C4 12.21 4 24.42 4 37 C2.02 37.495 2.02 37.495 0 38 C-1.78830448 36.21169552 -1.12848711 33.80418848 -1.13894653 31.42358398 C-1.1369223 30.64442627 -1.13489807 29.86526855 -1.1328125 29.0625 C-1.13376923 28.267229 -1.13472595 27.47195801 -1.13571167 26.65258789 C-1.13639343 24.9679354 -1.13453943 23.28328029 -1.13037109 21.59863281 C-1.12502275 19.01100803 -1.13031619 16.42355684 -1.13671875 13.8359375 C-1.13605797 12.20312461 -1.1347768 10.57031184 -1.1328125 8.9375 C-1.13483673 8.15834229 -1.13686096 7.37918457 -1.13894653 6.57641602 C-1.11495105 1.11495105 -1.11495105 1.11495105 0 0 Z M1 1 C-0.37317088 2.14588101 -0.37317088 2.14588101 -0.11352539 5.23461914 C-0.11336631 6.66814126 -0.10767407 8.10166912 -0.09765625 9.53515625 C-0.0962413 10.28840683 -0.09482635 11.04165741 -0.09336853 11.81773376 C-0.08775376 14.2326956 -0.07519883 16.64756601 -0.0625 19.0625 C-0.0574869 20.69596221 -0.05292366 22.32942586 -0.04882812 23.96289062 C-0.03777954 27.97529585 -0.02050506 31.98763241 0 36 C0.99 36.33 1.98 36.66 3 37 C3 25.12 3 13.24 3 1 C2.34 1 1.68 1 1 1 Z " fill="#DB202C" transform="translate(58,20)"/>
<path d="M0 0 C0.33 0 0.66 0 1 0 C1 16.83 1 33.66 1 51 C0.67 51 0.34 51 0 51 C-1.31809145 40.22985961 -0.90794463 29.56212163 -0.5625 18.75 C-0.50915226 16.92579908 -0.45641325 15.10158026 -0.40429688 13.27734375 C-0.27654329 8.85132492 -0.14057207 4.42562949 0 0 Z " fill="#DB202C" transform="translate(231,11)"/>
<path d="M0 0 C0.33 0 0.66 0 1 0 C1 17.16 1 34.32 1 52 C0.67 52 0.34 52 0 52 C0 34.84 0 17.68 0 0 Z " fill="#DB202C" transform="translate(159,11)"/>
<path d="M0 0 C0.33 0 0.66 0 1 0 C1.16816883 5.58656092 1.32866804 11.17327092 1.48217773 16.76025391 C1.5354264 18.6594022 1.59074136 20.55849375 1.64819336 22.45751953 C1.73058462 25.19290945 1.80545303 27.92841973 1.87890625 30.6640625 C1.90594131 31.50804596 1.93297638 32.35202942 1.96083069 33.22158813 C2.07135527 37.62346308 1.91112592 41.66218166 1 46 C0.67 46 0.34 46 0 46 C0 30.82 0 15.64 0 0 Z " fill="#DB202C" transform="translate(195,11)"/>
<path d="M0 0 C0.33 0 0.66 0 1 0 C1 12.21 1 24.42 1 37 C0.67 37 0.34 37 0 37 C-0.16769074 32.21301863 -0.3282422 27.42587122 -0.48217773 22.63842773 C-0.53555204 21.00978145 -0.59087782 19.3811979 -0.64819336 17.75268555 C-0.73023211 15.41208422 -0.80525361 13.07134712 -0.87890625 10.73046875 C-0.90594131 10.00224411 -0.93297638 9.27401947 -0.96083069 8.52372742 C-1.05398179 5.36954376 -1.00733412 3.02200236 0 0 Z " fill="#DB202C" transform="translate(42,22)"/>
<path d="M0 0 C4.48078692 0.4433256 8.95921234 0.90715277 13.4375 1.375 C14.71689453 1.50132813 15.99628906 1.62765625 17.31445312 1.7578125 C18.52939453 1.88671875 19.74433594 2.015625 20.99609375 2.1484375 C22.12200928 2.26364746 23.2479248 2.37885742 24.40795898 2.49755859 C25.26333252 2.66336426 26.11870605 2.82916992 27 3 C27.33 3.66 27.66 4.32 28 5 C23.70674503 4.55580879 19.41579949 4.09227031 15.125 3.625 C13.29001953 3.43550781 13.29001953 3.43550781 11.41796875 3.2421875 C10.25136719 3.11328125 9.08476562 2.984375 7.8828125 2.8515625 C6.80402832 2.73635254 5.72524414 2.62114258 4.61376953 2.50244141 C2 2 2 2 0 0 Z " fill="#DB202C" transform="translate(279,71)"/>
<path d="M0 0 C2.23413013 3.35119519 2.23847762 4.4177755 2.1953125 8.32421875 C2.18886719 9.35224609 2.18242187 10.38027344 2.17578125 11.43945312 C2.15902344 12.51130859 2.14226563 13.58316406 2.125 14.6875 C2.11597656 15.77095703 2.10695313 16.85441406 2.09765625 17.97070312 C2.0740734 20.6473571 2.04116126 23.32356797 2 26 C1.67 26 1.34 26 1 26 C0.67 17.42 0.34 8.84 0 0 Z " fill="#DB202C" transform="translate(18,46)"/>
<path d="M0 0 C1.90017822 3.80035644 2.24092197 4.63435491 1.9765625 8.546875 C1.925 9.39121094 1.8734375 10.23554687 1.8203125 11.10546875 C1.75585938 11.97816406 1.69140625 12.85085937 1.625 13.75 C1.56828125 14.63816406 1.5115625 15.52632812 1.453125 16.44140625 C1.31202454 18.62846332 1.1606567 20.8143069 1 23 C0.67 23 0.34 23 0 23 C0 15.41 0 7.82 0 0 Z " fill="#DB202C" transform="translate(173,40)"/>
<path d="M0 0 C1.32 0.33 2.64 0.66 4 1 C3.01 1 2.02 1 1 1 C1 7.27 1 13.54 1 20 C0.67 20 0.34 20 0 20 C0 13.4 0 6.8 0 0 Z " fill="#DB202C" transform="translate(126,44)"/>
<path d="M0 0 C0.33 0 0.66 0 1 0 C1 6.93 1 13.86 1 21 C0.67 21 0.34 21 0 21 C0 14.07 0 7.14 0 0 Z " fill="#DB202C" transform="translate(34,49)"/>
<path d="M0 0 C0.33 0 0.66 0 1 0 C1.66 3.63 2.32 7.26 3 11 C1.68 11 0.36 11 -1 11 C-0.835 10.29875 -0.67 9.5975 -0.5 8.875 C0.02415338 5.86111806 0.07099683 3.05286375 0 0 Z " fill="#DB202C" transform="translate(212,34)"/>
<path d="M0 0 C0.33 0 0.66 0 1 0 C1 5.61 1 11.22 1 17 C0.67 17 0.34 17 0 17 C0 11.39 0 5.78 0 0 Z " fill="#DB202C" transform="translate(130,45)"/>
<path d="M0 0 C0.33 0 0.66 0 1 0 C1 5.61 1 11.22 1 17 C0.67 17 0.34 17 0 17 C0 11.39 0 5.78 0 0 Z " fill="#DB202C" transform="translate(145,44)"/>
<path d="M0 0 C4.29 0.66 8.58 1.32 13 2 C13 2.33 13 2.66 13 3 C11.58344207 3.0272415 10.16672955 3.04650467 8.75 3.0625 C7.56664062 3.07990234 7.56664062 3.07990234 6.359375 3.09765625 C4.09308998 3.00385306 2.1711105 2.63241063 0 2 C0 1.34 0 0.68 0 0 Z " fill="#DB202C" transform="translate(247,67)"/>
<path d="M0 0 C2.64 0.33 5.28 0.66 8 1 C8 2.65 8 4.3 8 6 C7.67 4.68 7.34 3.36 7 2 C4.69 2.33 2.38 2.66 0 3 C0 2.01 0 1.02 0 0 Z " fill="#DB202C" transform="translate(209,56)"/>
<path d="M0 0 C0 0.33 0 0.66 0 1 C-5.94 1.495 -5.94 1.495 -12 2 C-12 1.67 -12 1.34 -12 1 C-7.9472484 0.01751476 -4.16138263 -0.08159574 0 0 Z " fill="#DB202C" transform="translate(33,72)"/>
<path d="M0 0 C-3.08888522 2.05925681 -3.70935927 2.2390374 -7.1875 2.125 C-9.0746875 2.063125 -9.0746875 2.063125 -11 2 C-11 1.67 -11 1.34 -11 1 C-9.5437328 0.63743142 -8.08488815 0.28520207 -6.625 -0.0625 C-5.40683594 -0.35833984 -5.40683594 -0.35833984 -4.1640625 -0.66015625 C-2 -1 -2 -1 0 0 Z " fill="#DB202C" transform="translate(104,66)"/>
<path d="M0 0 C4.29 0 8.58 0 13 0 C13 0.33 13 0.66 13 1 C8.71 1 4.42 1 0 1 C0 0.67 0 0.34 0 0 Z " fill="#DB202C" transform="translate(181,65)"/>
<path d="M0 0 C0.33 0 0.66 0 1 0 C1 4.29 1 8.58 1 13 C0.67 13 0.34 13 0 13 C0 8.71 0 4.42 0 0 Z " fill="#DB202C" transform="translate(145,18)"/>
<path d="M0 0 C1.258125 -0.04125 2.51625 -0.0825 3.8125 -0.125 C4.52019531 -0.14820312 5.22789062 -0.17140625 5.95703125 -0.1953125 C8 0 8 0 11 2 C7.37 1.67 3.74 1.34 0 1 C0 0.67 0 0.34 0 0 Z " fill="#DB202C" transform="translate(195,65)"/>
<path d="M0 0 C3.96 0 7.92 0 12 0 C12 0.33 12 0.66 12 1 C8.04 1 4.08 1 0 1 C0 0.67 0 0.34 0 0 Z " fill="#DB202C" transform="translate(133,65)"/>
<path d="M0 0 C0.33 0 0.66 0 1 0 C1.33 2.97 1.66 5.94 2 9 C1.34 8.67 0.68 8.34 0 8 C0 5.36 0 2.72 0 0 Z " fill="#DB202C" transform="translate(245,58)"/>
<path d="M0 0 C0.99 0.495 0.99 0.495 2 1 C2 2.65 2 4.3 2 6 C1.34 6 0.68 6 0 6 C0 4.02 0 2.04 0 0 Z " fill="#DB202C" transform="translate(76,53)"/>
<path d="M0 0 C0.66 0 1.32 0 2 0 C2 1.98 2 3.96 2 6 C1.34 5.67 0.68 5.34 0 5 C0 3.35 0 1.7 0 0 Z " fill="#DB202C" transform="translate(253,28)"/>
<path d="M0 0 C3 3 3 3 3.1875 6.1875 C3.0946875 7.5796875 3.0946875 7.5796875 3 9 C2.67 9 2.34 9 2 9 C1.34 6.03 0.68 3.06 0 0 Z " fill="#DB202C" transform="translate(74,14)"/>
<path d="M0 0 C3.3 0 6.6 0 10 0 C10 0.33 10 0.66 10 1 C6.7 1 3.4 1 0 1 C0 0.67 0 0.34 0 0 Z " fill="#DB202C" transform="translate(162,65)"/>
<path d="M0 0 C3.3 0 6.6 0 10 0 C10 0.33 10 0.66 10 1 C6.7 1 3.4 1 0 1 C0 0.67 0 0.34 0 0 Z " fill="#DB202C" transform="translate(115,65)"/>
<path d="M0 0 C0.33 0 0.66 0 1 0 C1 3.3 1 6.6 1 10 C0.67 10 0.34 10 0 10 C0 6.7 0 3.4 0 0 Z " fill="#DB202C" transform="translate(130,21)"/>
<path d="M0 0 C0.66 0.33 1.32 0.66 2 1 C0.35 2.32 -1.3 3.64 -3 5 C-2.625 3.0625 -2.625 3.0625 -2 1 C-1.34 0.67 -0.68 0.34 0 0 Z " fill="#DB202C" transform="translate(48,10)"/>
<path d="M0 0 C0 0.99 0 1.98 0 3 C-1.98 3.99 -1.98 3.99 -4 5 C-2.68 3.35 -1.36 1.7 0 0 Z " fill="#DB202C" transform="translate(73,63)"/>
<path d="M0 0 C0.33 0.99 0.66 1.98 1 3 C0.34 3.99 -0.32 4.98 -1 6 C-1 2 -1 2 0 0 Z " fill="#DB202C" transform="translate(143,33)"/>
<path d="M0 0 C2.64 0 5.28 0 8 0 C8 0.33 8 0.66 8 1 C5.36 1 2.72 1 0 1 C0 0.67 0 0.34 0 0 Z " fill="#DB202C" transform="translate(264,70)"/>
<path d="M0 0 C2.64 0 5.28 0 8 0 C8 0.33 8 0.66 8 1 C5.36 1 2.72 1 0 1 C0 0.67 0 0.34 0 0 Z " fill="#DB202C" transform="translate(223,67)"/>
<path d="M0 0 C2 3 2 3 1.625 5.1875 C1.315625 6.0846875 1.315625 6.0846875 1 7 C0.67 4.69 0.34 2.38 0 0 Z " fill="#DB202C" transform="translate(26,22)"/>
<path d="M0 0 C0 0.99 0 1.98 0 3 C-0.99 3 -1.98 3 -3 3 C-2.01 2.01 -1.02 1.02 0 0 Z " fill="#DB202C" transform="translate(107,61)"/>
<path d="M0 0 C1.98 0 3.96 0 6 0 C6 0.33 6 0.66 6 1 C4.02 1 2.04 1 0 1 C0 0.67 0 0.34 0 0 Z " fill="#DB202C" transform="translate(233,67)"/>
<path d="M0 0 C2.475 0.495 2.475 0.495 5 1 C5 1.33 5 1.66 5 2 C3.35 2 1.7 2 0 2 C0 1.34 0 0.68 0 0 Z " fill="#DB202C" transform="translate(218,65)"/>
<path d="M0 0 C0.33 0 0.66 0 1 0 C1 1.98 1 3.96 1 6 C0.67 6 0.34 6 0 6 C0 4.02 0 2.04 0 0 Z " fill="#DB202C" transform="translate(261,62)"/>
<path d="M0 0 C0.33 0 0.66 0 1 0 C1 1.98 1 3.96 1 6 C0.67 6 0.34 6 0 6 C0 4.02 0 2.04 0 0 Z " fill="#DB202C" transform="translate(255,22)"/>
<path d="M0 0 C0.33 0 0.66 0 1 0 C1 1.98 1 3.96 1 6 C0.67 6 0.34 6 0 6 C0 4.02 0 2.04 0 0 Z " fill="#DB202C" transform="translate(256,16)"/>
<path d="M0 0 C1.65 0 3.3 0 5 0 C5 0.33 5 0.66 5 1 C3.35 1 1.7 1 0 1 C0 0.67 0 0.34 0 0 Z " fill="#DB202C" transform="translate(239,68)"/>
<path d="M0 0 C1.65 0 3.3 0 5 0 C5 0.33 5 0.66 5 1 C3.35 1 1.7 1 0 1 C0 0.67 0 0.34 0 0 Z " fill="#DB202C" transform="translate(88,68)"/>
<path d="M0 0 C0.66 1.32 1.32 2.64 2 4 C1.34 3.67 0.68 3.34 0 3 C0 2.01 0 1.02 0 0 Z " fill="#DB202C" transform="translate(44,62)"/>
<path d="M0 0 C0.33 0 0.66 0 1 0 C1 1.65 1 3.3 1 5 C0.67 5 0.34 5 0 5 C0 3.35 0 1.7 0 0 Z " fill="#DB202C" transform="translate(208,59)"/>
<path d="M0 0 C0.33 0 0.66 0 1 0 C1 1.65 1 3.3 1 5 C0.67 5 0.34 5 0 5 C0 3.35 0 1.7 0 0 Z " fill="#DB202C" transform="translate(229,45)"/>
<path d="M0 0 C0.33 0 0.66 0 1 0 C1 1.65 1 3.3 1 5 C0.67 5 0.34 5 0 5 C0 3.35 0 1.7 0 0 Z " fill="#DB202C" transform="translate(228,39)"/>
<path d="M0 0 C0.33 0 0.66 0 1 0 C1 1.65 1 3.3 1 5 C0.67 5 0.34 5 0 5 C0 3.35 0 1.7 0 0 Z " fill="#DB202C" transform="translate(198,35)"/>
<path d="M0 0 C0.33 0 0.66 0 1 0 C1 1.65 1 3.3 1 5 C0.67 5 0.34 5 0 5 C0 3.35 0 1.7 0 0 Z " fill="#DB202C" transform="translate(227,34)"/>
<path d="M0 0 C0.33 0 0.66 0 1 0 C1 1.65 1 3.3 1 5 C0.67 5 0.34 5 0 5 C0 3.35 0 1.7 0 0 Z " fill="#DB202C" transform="translate(199,30)"/>
<path d="M0 0 C0.33 0 0.66 0 1 0 C1 1.65 1 3.3 1 5 C0.67 5 0.34 5 0 5 C0 3.35 0 1.7 0 0 Z " fill="#DB202C" transform="translate(226,28)"/>
<path d="M0 0 C0.33 0 0.66 0 1 0 C1 1.65 1 3.3 1 5 C0.67 5 0.34 5 0 5 C0 3.35 0 1.7 0 0 Z " fill="#DB202C" transform="translate(200,24)"/>
<path d="M0 0 C0.33 0 0.66 0 1 0 C1 1.65 1 3.3 1 5 C0.67 5 0.34 5 0 5 C0 3.35 0 1.7 0 0 Z " fill="#DB202C" transform="translate(252,22)"/>
<path d="M0 0 C0.33 0 0.66 0 1 0 C1 1.65 1 3.3 1 5 C0.67 5 0.34 5 0 5 C0 3.35 0 1.7 0 0 Z " fill="#DB202C" transform="translate(201,19)"/>
<path d="M0 0 C0.33 0 0.66 0 1 0 C1 1.65 1 3.3 1 5 C0.67 5 0.34 5 0 5 C0 3.35 0 1.7 0 0 Z " fill="#DB202C" transform="translate(251,17)"/>
<path d="M0 0 C0.33 0 0.66 0 1 0 C1 1.65 1 3.3 1 5 C0.67 5 0.34 5 0 5 C0 3.35 0 1.7 0 0 Z " fill="#DB202C" transform="translate(224,17)"/>
<path d="M0 0 C0.33 0 0.66 0 1 0 C1 1.65 1 3.3 1 5 C0.67 5 0.34 5 0 5 C0 3.35 0 1.7 0 0 Z " fill="#DB202C" transform="translate(202,13)"/>
<path d="M0 0 C0.33 0 0.66 0 1 0 C1 1.65 1 3.3 1 5 C0.67 5 0.34 5 0 5 C0 3.35 0 1.7 0 0 Z " fill="#DB202C" transform="translate(223,12)"/>
<path d="M0 0 C0.33 0 0.66 0 1 0 C1 1.65 1 3.3 1 5 C0.67 5 0.34 5 0 5 C0 3.35 0 1.7 0 0 Z " fill="#DB202C" transform="translate(250,11)"/>
<path d="M0 0 C0.99 0.495 0.99 0.495 2 1 C1.67 1.66 1.34 2.32 1 3 C0.67 2.01 0.34 1.02 0 0 Z " fill="#DB202C" transform="translate(79,61)"/>
<path d="M0 0 C1 4 1 4 1 4 Z " fill="#DB202C" transform="translate(35,45)"/>
<path d="M0 0 C1 4 1 4 1 4 Z " fill="#DB202C" transform="translate(197,41)"/>
<path d="M0 0 C1 4 1 4 1 4 Z " fill="#DB202C" transform="translate(16,39)"/>
<path d="M0 0 C1 4 1 4 1 4 Z " fill="#DB202C" transform="translate(13,29)"/>
<path d="M0 0 C1 4 1 4 1 4 Z " fill="#DB202C" transform="translate(225,23)"/>
<path d="M0 0 C1 4 1 4 1 4 Z " fill="#DB202C" transform="translate(180,20)"/>
<path d="M0 0 C1 4 1 4 1 4 Z " fill="#DB202C" transform="translate(10,19)"/>
<path d="M0 0 C1 4 1 4 1 4 Z " fill="#DB202C" transform="translate(25,18)"/>
<path d="M0 0 C1 4 1 4 1 4 Z " fill="#DB202C" transform="translate(30,14)"/>
<path d="M0 0 C1 4 1 4 1 4 Z " fill="#DB202C" transform="translate(257,11)"/>
<path d="M0 0 C1 4 1 4 1 4 Z " fill="#DB202C" transform="translate(23,11)"/>
<path d="M0 0 C0.66 0.66 1.32 1.32 2 2 C1.34 2 0.68 2 0 2 C0 1.34 0 0.68 0 0 Z " fill="#DB202C" transform="translate(262,68)"/>
<path d="M0 0 C0.66 0.66 1.32 1.32 2 2 C1.34 2 0.68 2 0 2 C0 1.34 0 0.68 0 0 Z " fill="#DB202C" transform="translate(112,64)"/>
<path d="M0 0 C0.33 0.66 0.66 1.32 1 2 C0.34 1.67 -0.32 1.34 -1 1 C-0.67 0.67 -0.34 0.34 0 0 Z " fill="#DB202C" transform="translate(207,64)"/>
<path d="M0 0 C0.66 0.66 1.32 1.32 2 2 C1.34 2 0.68 2 0 2 C0 1.34 0 0.68 0 0 Z " fill="#DB202C" transform="translate(160,63)"/>
<path d="" fill="#DB202C" transform="translate(0,0)"/>
<path d="" fill="#DB202C" transform="translate(0,0)"/>
<path d="" fill="#DB202C" transform="translate(0,0)"/>
<path d="" fill="#DB202C" transform="translate(0,0)"/>
<path d="" fill="#DB202C" transform="translate(0,0)"/>
<path d="" fill="#DB202C" transform="translate(0,0)"/>
<path d="" fill="#DB202C" transform="translate(0,0)"/>
<path d="" fill="#DB202C" transform="translate(0,0)"/>
<path d="" fill="#DB202C" transform="translate(0,0)"/>
<path d="" fill="#DB202C" transform="translate(0,0)"/>
<path d="" fill="#DB202C" transform="translate(0,0)"/>
<path d="" fill="#DB202C" transform="translate(0,0)"/>
<path d="" fill="#DB202C" transform="translate(0,0)"/>
<path d="" fill="#DB202C" transform="translate(0,0)"/>
<path d="" fill="#DB202C" transform="translate(0,0)"/>
<path d="" fill="#DB202C" transform="translate(0,0)"/>
<path d="" fill="#DB202C" transform="translate(0,0)"/>
<path d="" fill="#DB202C" transform="translate(0,0)"/>
<path d="" fill="#DB202C" transform="translate(0,0)"/>
<path d="" fill="#DB202C" transform="translate(0,0)"/>
<path d="" fill="#DB202C" transform="translate(0,0)"/>
<path d="" fill="#DB202C" transform="translate(0,0)"/>
<path d="" fill="#DB202C" transform="translate(0,0)"/>
<path d="M0 0 C0.66 0 1.32 0 2 0 C1.67 0.66 1.34 1.32 1 2 C0.67 1.34 0.34 0.68 0 0 Z " fill="#DB202C" transform="translate(141,12)"/>
<path d="" fill="#DB202C" transform="translate(0,0)"/>
<path d="" fill="#DB202C" transform="translate(0,0)"/>
<path d="M0 0 C2 1 2 1 2 1 Z " fill="#DB202C" transform="translate(65,69)"/>
<path d="M0 0 C2 1 2 1 2 1 Z " fill="#DB202C" transform="translate(67,68)"/>
<path d="M0 0 C2 1 2 1 2 1 Z " fill="#DB202C" transform="translate(231,66)"/>
<path d="" fill="#DB202C" transform="translate(0,0)"/>
<path d="" fill="#DB202C" transform="translate(0,0)"/>
<path d="" fill="#DB202C" transform="translate(0,0)"/>
<path d="" fill="#DB202C" transform="translate(0,0)"/>
<path d="" fill="#DB202C" transform="translate(0,0)"/>
<path d="" fill="#DB202C" transform="translate(0,0)"/>
<path d="" fill="#DB202C" transform="translate(0,0)"/>
<path d="" fill="#DB202C" transform="translate(0,0)"/>
<path d="" fill="#DB202C" transform="translate(0,0)"/>
<path d="" fill="#DB202C" transform="translate(0,0)"/>
<path d="" fill="#DB202C" transform="translate(0,0)"/>
<path d="M0 0 C2 1 2 1 2 1 Z " fill="#DB202C" transform="translate(304,46)"/>
<path d="" fill="#DB202C" transform="translate(0,0)"/>
<path d="" fill="#DB202C" transform="translate(0,0)"/>
<path d="M0 0 C2 1 2 1 2 1 Z " fill="#DB202C" transform="translate(303,34)"/>
<path d="" fill="#DB202C" transform="translate(0,0)"/>
<path d="" fill="#DB202C" transform="translate(0,0)"/>
<path d="" fill="#DB202C" transform="translate(0,0)"/>
<path d="" fill="#DB202C" transform="translate(0,0)"/>
<path d="" fill="#DB202C" transform="translate(0,0)"/>
<path d="" fill="#DB202C" transform="translate(0,0)"/>
<path d="M0 0 C2 1 2 1 2 1 Z " fill="#DB202C" transform="translate(138,10)"/>
<path d="" fill="#DB202C" transform="translate(0,0)"/>
<path d="" fill="#DB202C" transform="translate(0,0)"/>
<path d="" fill="#DB202C" transform="translate(0,0)"/>
<path d="" fill="#DB202C" transform="translate(0,0)"/>
<path d="" fill="#DB202C" transform="translate(0,0)"/>
<path d="" fill="#DB202C" transform="translate(0,0)"/>
<path d="" fill="#DB202C" transform="translate(0,0)"/>
<path d="" fill="#DB202C" transform="translate(0,0)"/>
<path d="" fill="#DB202C" transform="translate(0,0)"/>
<path d="" fill="#DB202C" transform="translate(0,0)"/>
<path d="" fill="#DB202C" transform="translate(0,0)"/>
<path d="" fill="#DB202C" transform="translate(0,0)"/>
<path d="" fill="#DB202C" transform="translate(0,0)"/>
<path d="" fill="#DB202C" transform="translate(0,0)"/>
<path d="" fill="#DB202C" transform="translate(0,0)"/>
<path d="" fill="#DB202C" transform="translate(0,0)"/>
<path d="" fill="#DB202C" transform="translate(0,0)"/>
<path d="" fill="#DB202C" transform="translate(0,0)"/>
<path d="" fill="#DB202C" transform="translate(0,0)"/>
<path d="" fill="#DB202C" transform="translate(0,0)"/>
<path d="" fill="#DB202C" transform="translate(0,0)"/>
<path d="" fill="#DB202C" transform="translate(0,0)"/>
<path d="" fill="#DB202C" transform="translate(0,0)"/>
<path d="" fill="#DB202C" transform="translate(0,0)"/>
<path d="" fill="#DB202C" transform="translate(0,0)"/>
<path d="" fill="#DB202C" transform="translate(0,0)"/>
<path d="" fill="#DB202C" transform="translate(0,0)"/>
<path d="" fill="#DB202C" transform="translate(0,0)"/>
<path d="" fill="#DB202C" transform="translate(0,0)"/>
<path d="" fill="#DB202C" transform="translate(0,0)"/>
<path d="" fill="#DB202C" transform="translate(0,0)"/>
</svg>
